<mxfile host="app.diagrams.net" modified="2023-07-14T14:14:12.003Z" agent="Mozilla/5.0 (Macintosh; Intel Mac OS X 10_15_7) AppleWebKit/537.36 (KHTML, like Gecko) Chrome/114.0.0.0 Safari/537.36" version="21.3.6" etag="_4W16FZpHR_tGoI9bV54" type="github">
  <diagram name="Страница 1" id="N97zTMmpEy14pZVABGUF">
    <mxGraphModel>
      <root>
        <mxCell id="0" />
        <mxCell id="1" parent="0" />
      </root>
    </mxGraphModel>
  </diagram>
</mxfile>
